<mxfile host="app.diagrams.net" modified="2024-03-17T20:17:46.028Z" agent="Mozilla/5.0 (Windows NT 10.0; Win64; x64) AppleWebKit/537.36 (KHTML, like Gecko) Chrome/122.0.0.0 Safari/537.36" etag="20Kkou-besvVl7DC4SaB" version="24.0.5" type="device">
  <diagram name="PÃ¡gina-1" id="O7xzTvkoLaR9lHoIXSIo">
    <mxGraphModel dx="1197" dy="351" grid="0" gridSize="10" guides="1" tooltips="1" connect="1" arrows="1" fold="1" page="0" pageScale="1" pageWidth="827" pageHeight="1169" math="0" shadow="0">
      <root>
        <mxCell id="0" />
        <mxCell id="1" parent="0" />
        <mxCell id="NTjU7Ghl62rX6COnPViz-1" value="" style="rounded=1;whiteSpace=wrap;html=1;strokeColor=#007FFF;strokeWidth=4;fillColor=none;" parent="1" vertex="1">
          <mxGeometry x="-225" y="191" width="1347" height="606" as="geometry" />
        </mxCell>
        <mxCell id="NTjU7Ghl62rX6COnPViz-2" value="" style="editableCssRules=.*;html=1;shape=image;verticalLabelPosition=bottom;labelBackgroundColor=#ffffff;verticalAlign=top;aspect=fixed;imageAspect=0;image=data:image/svg+xml,PHN2ZyB4bWxucz0iaHR0cDovL3d3dy53My5vcmcvMjAwMC9zdmciIHhtbG5zOnY9Imh0dHBzOi8vdmVjdGEuaW8vbmFubyIgd2lkdGg9IjcwMi44NDYzMTM0NzY1NjI1IiBoZWlnaHQ9IjY4MS45NjcxMDIwNTA3ODEyIiB2aWV3Qm94PSIxMC4wMDEwMjYxNTM1NjQ0NTMgMTAuMDAwOTMzNjQ3MTU1NzYyIDcwMi44NDYzMTM0NzY1NjI1IDY4MS45NjcxMDIwNTA3ODEyIj4mI3hhOwk8c3R5bGUgdHlwZT0idGV4dC9jc3MiPiYjeGE7CS5zdDB7ZmlsbDojMzI2Y2U1O30mI3hhOwkuc3Qxe2ZpbGw6I2ZmZjt9JiN4YTsJPC9zdHlsZT4mI3hhOwk8cGF0aCBjbGFzcz0ic3QwIiBkPSJNMzU4Ljk4NyAxMC4wNmMtNi4yMTMuMzEzLTEyLjMwMSAxLjg1NC0xNy45MDYgNC41MzFMOTYuNzM3IDEzMS4zNDJjLTEyLjgxMSA2LjExOC0yMi4xMTYgMTcuNjg5LTI1LjI4MSAzMS40MzhsLTYwLjI4MSAyNjIuMjVjLTIuODEyIDEyLjIwNy0uNTI0IDI1LjAyNCA2LjM0NCAzNS41MzFhNDYuMzUgNDYuMzUgMCAwIDAgMi42NTYgMy42ODhsMTY5LjEyNSAyMTAuMjgxYzguODY4IDExLjAyMiAyMi4zMTMgMTcuNDQgMzYuNTMxIDE3LjQzOGwyNzEuMjE5LS4wNjJjMTQuMjEyLjAxIDI3LjY1Ny02LjM5NiAzNi41MzEtMTcuNDA2bDE2OS4wNjMtMjEwLjMxM2M4Ljg3My0xMS4wMjggMTIuMTk3LTI1LjQ2NCA5LjAzMS0zOS4yMTlsLTYwLjM3NS0yNjIuMjVjLTMuMTY1LTEzLjc0OC0xMi40Ny0yNS4zMTktMjUuMjgxLTMxLjQzN0wzODEuNjQzIDE0LjU5MmMtNy4wNS0zLjM2OC0xNC44NDEtNC45MjYtMjIuNjU2LTQuNTMxeiIvPiYjeGE7CTxwYXRoIGNsYXNzPSJzdDEgc3QyIiBkPSJNMzYxLjQwOCA5OS4zMDhjLTguMDc3LjAwMS0xNC42MjYgNy4yNzYtMTQuNjI1IDE2LjI1IDAgLjEzOC4wMjguMjY5LjAzMS40MDYtLjAxMiAxLjIxOS0uMDcxIDIuNjg4LS4wMzEgMy43NS4xOTMgNS4xNzYgMS4zMjEgOS4xMzcgMiAxMy45MDYgMS4yMyAxMC4yMDcgMi4yNjEgMTguNjY3IDEuNjI1IDI2LjUzMS0uNjE5IDIuOTY1LTIuODAzIDUuNjc3LTQuNzUgNy41NjNsLS4zNDQgNi4xODhjLTguNzc3LjcyNy0xNy42MTIgMi4wNTktMjYuNDM3IDQuMDYzLTM3Ljk3NSA4LjYyMi03MC42NyAyOC4xODMtOTUuNTYyIDU0LjU5NC0xLjYxNS0xLjEwMi00LjQ0MS0zLjEyOS01LjI4MS0zLjc1LTIuNjExLjM1My01LjI1IDEuMTU4LTguNjg3LS44NDQtNi41NDUtNC40MDYtMTIuNTA2LTEwLjQ4Ny0xOS43MTktMTcuODEyLTMuMzA1LTMuNTA0LTUuNjk4LTYuODQxLTkuNjI1LTEwLjIxOS0uODkyLS43NjctMi4yNTMtMS44MDUtMy4yNS0yLjU5NC0zLjA3LTIuNDQ4LTYuNjkxLTMuNzI0LTEwLjE4Ny0zLjg0NC00LjQ5Ni0uMTU0LTguODI0IDEuNjA0LTExLjY1NiA1LjE1Ni01LjAzNSA2LjMxNS0zLjQyMyAxNS45NjggMy41OTQgMjEuNTYzLjA3MS4wNTcuMTQ3LjEwMS4yMTkuMTU2Ljk2NC43ODIgMi4xNDUgMS43ODMgMy4wMzEgMi40MzggNC4xNjcgMy4wNzcgNy45NzMgNC42NTEgMTIuMTI1IDcuMDk0IDguNzQ3IDUuNDAyIDE1Ljk5OCA5Ljg4MSAyMS43NSAxNS4yODEgMi4yNDYgMi4zOTQgMi42MzkgNi42MTMgMi45MzggOC40MzhsNC42ODggNC4xODhjLTI1LjA5MyAzNy43NjQtMzYuNzA3IDg0LjQwOS0yOS44NDQgMTMxLjkzOGwtNi4xMjUgMS43ODFjLTEuNjE0IDIuMDg1LTMuODk1IDUuMzY1LTYuMjgxIDYuMzQ0LTcuNTI1IDIuMzctMTUuOTk0IDMuMjQxLTI2LjIxOSA0LjMxMy00LjguMzk5LTguOTQyLjE2MS0xNC4wMzEgMS4xMjUtMS4xMi4yMTItMi42ODEuNjE5LTMuOTA2LjkwNi0uMDQzLjAwOS0uMDgyLjAyMi0uMTI1LjAzMS0uMDY3LjAxNS0uMTU1LjA0OC0uMjE5LjA2My04LjYyIDIuMDgzLTE0LjE1OCAxMC4wMDYtMTIuMzc1IDE3LjgxM3MxMC4yMDMgMTIuNTU3IDE4Ljg3NSAxMC42ODhjLjA2My0uMDE0LjE1NC0uMDE3LjIxOS0uMDMxLjA5OC0uMDIyLjE4NC0uMDcuMjgxLS4wOTQgMS4yMDktLjI2NSAyLjcyNC0uNTYxIDMuNzgxLS44NDQgNS4wMDMtMS4zNCA4LjYyNy0zLjMwOCAxMy4xMjUtNS4wMzEgOS42NzctMy40NzEgMTcuNjkyLTYuMzcgMjUuNS03LjUgMy4yNjEtLjI1NSA2LjY5NyAyLjAxMiA4LjQwNiAyLjk2OWw2LjM3NS0xLjA5NGMxNC42NyA0NS40ODMgNDUuNDE0IDgyLjI0NSA4NC4zNDQgMTA1LjMxMmwtMi42NTYgNi4zNzVjLjk1NyAyLjQ3NSAyLjAxMyA1LjgyNSAxLjMgOC4yNjktMi44MzkgNy4zNjEtNy43MDEgMTUuMTMxLTEzLjIzOCAyMy43OTMtMi42ODEgNC4wMDItNS40MjUgNy4xMDgtNy44NDQgMTEuNjg4LS41NzkgMS4wOTYtMS4zMTYgMi43NzktMS44NzUgMy45MzgtMy43NTkgOC4wNDItMS4wMDIgMTcuMzA1IDYuMjE5IDIwLjc4MSA3LjI2NiAzLjQ5OCAxNi4yODQtLjE5MSAyMC4xODctOC4yNS4wMDYtLjAxMS4wMjYtLjAyLjAzMS0uMDMxcy0uMDA0LS4wMjMgMC0uMDMxYy41NTYtMS4xNDMgMS4zNDQtMi42NDQgMS44MTMtMy43MTkgMi4wNzItNC43NDcgMi43NjItOC44MTUgNC4yMTktMTMuNDA2IDMuODctOS43MiA1Ljk5Ni0xOS45MTkgMTEuMzIzLTI2LjI3NCAxLjQ1OS0xLjc0IDMuODM3LTIuNDA5IDYuMzAyLTMuMDdsMy4zMTMtNmMzMy45MzggMTMuMDI3IDcxLjkyNyAxNi41MjIgMTA5Ljg3NSA3LjkwNmExODkuNzcgMTg5Ljc3IDAgMCAwIDI1LjA5NC03LjU2MmwzLjEyNSA1LjYyNWMyLjUwNi44MTUgNS4yNCAxLjIzNiA3LjQ2OSA0LjUzMSAzLjk4NSA2LjgwOSA2LjcxMSAxNC44NjQgMTAuMDMxIDI0LjU5NCAxLjQ1NyA0LjU5MSAyLjE3OCA4LjY1OSA0LjI1IDEzLjQwNi40NzIgMS4wODIgMS4yNTYgMi42MDUgMS44MTMgMy43NSAzLjg5NSA4LjA4NSAxMi45NDIgMTEuNzg3IDIwLjIxOSA4LjI4MSA3LjIxOS0zLjQ3OCA5Ljk4LTEyLjc0IDYuMjE5LTIwLjc4MWwtMS45MDYtMy45MzdjLTIuNDE5LTQuNTgtNS4xNjMtNy42NTQtNy44NDQtMTEuNjU2LTUuNTM3LTguNjYyLTEwLjEzLTE1Ljg1OC0xMi45NjktMjMuMjE5LTEuMTg3LTMuNzk3LjItNi4xNTggMS4xMjUtOC42MjUtLjU1NC0uNjM1LTEuNzM5LTQuMjItMi40MzctNS45MDYgNDAuNDU3LTIzLjg4OCA3MC4yOTktNjIuMDIxIDg0LjMxMy0xMDYuMDYyIDEuODkyLjI5NyA1LjE4Mi44NzkgNi4yNSAxLjA5NCAyLjItMS40NTEgNC4yMjItMy4zNDQgOC4xODgtMy4wMzEgNy44MDggMS4xMjkgMTUuODIzIDQuMDMgMjUuNSA3LjUgNC40OTggMS43MjMgOC4xMjIgMy43MjMgMTMuMTI1IDUuMDYzIDEuMDU3LjI4MyAyLjU3Mi41NDcgMy43ODEuODEzLjA5Ny4wMjQuMTgzLjA3MS4yODEuMDk0LjA2NS4wMTUuMTU2LjAxNy4yMTkuMDMxIDguNjcyIDEuODY3IDE3LjA5NC0yLjg3OSAxOC44NzUtMTAuNjg3cy0zLjc1NC0xNS43MzItMTIuMzc1LTE3LjgxMmMtMS4yNTQtLjI4NS0zLjAzMi0uNzY5LTQuMjUtMS01LjA4OS0uOTY0LTkuMjMxLS43MjYtMTQuMDMxLTEuMTI1LTEwLjIyNS0xLjA3MS0xOC42OTMtMS45NDMtMjYuMjE5LTQuMzEyLTMuMDY4LTEuMTktNS4yNTEtNC44NDEtNi4zMTMtNi4zNDRsLTUuOTA2LTEuNzE5YzMuMDYyLTIyLjE1NCAyLjIzNy00NS4yMTEtMy4wNjItNjguMjgxLTUuMzQ4LTIzLjI4NS0xNC44LTQ0LjU4MS0yNy40MDYtNjMuMzQ0bDUuMTg4LTQuNjU2Yy4yMzctMi42MjQuMDMzLTUuMzc2IDIuNzUtOC4yODEgNS43NTEtNS40MDEgMTMuMDAzLTkuODc5IDIxLjc1LTE1LjI4MSA0LjE1Mi0yLjQ0MyA3Ljk5LTQuMDE3IDEyLjE1Ni03LjA5NC45NDItLjY5NiAyLjIyOS0xLjc5OCAzLjIxOS0yLjU5NCA3LjAxNS01LjU5NiA4LjYzMS0xNS4yNDggMy41OTQtMjEuNTYycy0xNC43OTctNi45MDktMjEuODEyLTEuMzEyYy0uOTk5Ljc5MS0yLjM1NCAxLjgyMy0zLjI1IDIuNTk0LTMuOTI3IDMuMzc4LTYuMzUxIDYuNzE0LTkuNjU2IDEwLjIxOS03LjIxMiA3LjMyNi0xMy4xNzQgMTMuNDM4LTE5LjcxOSAxNy44NDQtMi44MzYgMS42NTEtNi45OSAxLjA4LTguODc1Ljk2OWwtNS41NjIgMy45NjljLTMxLjcxOS0zMy4yNjEtNzQuOTA1LTU0LjUyNS0xMjEuNDA2LTU4LjY1NmwtLjM0NC02LjUzMWMtMS45MDQtMS44MjItNC4yMDMtMy4zNzctNC43ODEtNy4zMTItLjYzNi03Ljg2NC40MjYtMTYuMzI1IDEuNjU2LTI2LjUzMS42NzktNC43NjkgMS44MDctOC43MyAyLTEzLjkwNi4wNDQtMS4xNzctLjAyNi0yLjg4NC0uMDMxLTQuMTU2LS4wMDEtOC45NzQtNi41NDgtMTYuMjUxLTE0LjYyNS0xNi4yNXptLTE4LjMxMiAxMTMuNDM4bC00LjM0NCA3Ni43MTktLjMxMi4xNTZjLS4yOTEgNi44NjMtNS45NCAxMi4zNDQtMTIuODc1IDEyLjM0NGExMi44MiAxMi44MiAwIDAgMS03LjU5NC0yLjQ2OWwtLjEyNS4wNjMtNjIuOTA2LTQ0LjU5NGMxOS4zMzQtMTkuMDExIDQ0LjA2My0zMy4wNiA3Mi41NjItMzkuNTMxIDUuMjA2LTEuMTgyIDEwLjQxLTIuMDU5IDE1LjU5NC0yLjY4N3ptMzYuNjU2IDBjMzMuMjczIDQuMDkyIDY0LjA0NSAxOS4xNTkgODcuNjI1IDQyLjI1bC02Mi41IDQ0LjMxMy0uMjE5LS4wOTRhMTIuOTEgMTIuOTEgMCAwIDEtMTcuNjg3LTIuMzc1Yy0xLjc3MS0yLjIyMS0yLjcwMS00LjgzMi0yLjgxMi03LjQ2OWwtLjA2Mi0uMDMxek0yMzIuMTI2IDI4My42Mmw1Ny40MzcgNTEuMzc1LS4wNjIuMzEzYTEyLjg4IDEyLjg4IDAgMCAxIDEuNjI1IDE3Ljc1IDEyLjg5IDEyLjg5IDAgMCAxLTYuNjg3IDQuNDA2bC0uMDYyLjI1LTczLjYyNSAyMS4yNWMtMy43NDctMzQuMjY1IDQuMzI5LTY3LjU3NCAyMS4zNzUtOTUuMzQ0em0yNTguMTU2LjAzMWM4LjUzNCAxMy44MzMgMTQuOTk3IDI5LjI4MiAxOC44NDQgNDYuMDMxIDMuODAxIDE2LjU0OCA0Ljc1NSAzMy4wNjcgMy4xODggNDkuMDMxbC03NC0yMS4zMTItLjA2Mi0uMzEyYy02LjYyNy0xLjgxMS0xMC42OTktOC41NTItOS4xNTYtMTUuMzEyLjYzMi0yLjc3IDIuMTAyLTUuMTEzIDQuMDk0LTYuODQ0bC0uMDMxLS4xNTYgNTcuMTI1LTUxLjEyNXptLTE0MC42NTYgNTUuMzEzaDIzLjUzMWwxNC42MjUgMTguMjgxLTUuMjUgMjIuODEzLTIxLjEyNSAxMC4xNTYtMjEuMTg3LTEwLjE4Ny01LjI1LTIyLjgxMnptNzUuNDM4IDYyLjU2M2ExMi44MyAxMi44MyAwIDAgMSAyLjk2OS4yMTlsLjEyNS0uMTU2IDc2LjE1NiAxMi44NzVjLTExLjE0NiAzMS4zMTMtMzIuNDczIDU4LjQ0LTYwLjk2OSA3Ni41OTRsLTI5LjU2Mi03MS40MDYuMDk0LS4xMjVjLTIuNzE2LTYuMzEuMDAyLTEzLjcxIDYuMjUtMTYuNzE5IDEuNi0uNzcgMy4yNzEtMS4xOTcgNC45MzgtMS4yODF6bS0xMjcuOTA2LjMxM2ExMi45IDEyLjkgMCAwIDEgMTIuMzc1IDEwLjAzMSAxMi43NyAxMi43NyAwIDAgMS0uNzE5IDcuOTM4bC4yMTkuMjgxLTI5LjI1IDcwLjY4OGMtMjcuMzQ3LTE3LjU0OS00OS4xMjktNDMuODI0LTYwLjc4MS03Ni4wNjJsNzUuNS0xMi44MTIuMTI1LjE1NmMuODQ1LS4xNTUgMS43MDEtLjIzIDIuNTMxLS4yMTl6bTYzLjc4MSAzMC45NjljMi4wMjQtLjA3NCA0LjA3OS4zNDEgNi4wMzEgMS4yODEgMi41NiAxLjIzMyA0LjUzNyAzLjE3MyA1Ljc4MSA1LjVoLjI4MWwzNy4yMTkgNjcuMjVjLTQuODMgMS42MTktOS43OTYgMy4wMDMtMTQuODc1IDQuMTU2LTI4LjQ2NSA2LjQ2My01Ni44MzkgNC41MDUtODIuNTMxLTQuMjVsMzcuMTI1LTY3LjEyNWguMDYzYTEyLjkxIDEyLjkxIDAgMCAxIDEwLjkwNi02LjgxMnoiIHN0cm9rZT0ibm9uZSIgc3Ryb2tlLXdpZHRoPSIuMjUiLz4mI3hhOzwvc3ZnPg==;fontColor=default;" parent="1" vertex="1">
          <mxGeometry x="-235" y="151" width="89.48" height="85" as="geometry" />
        </mxCell>
        <mxCell id="NTjU7Ghl62rX6COnPViz-3" value="&lt;b style=&quot;font-size: 20px;&quot;&gt;Cluster Tech News&lt;/b&gt;" style="text;html=1;align=center;verticalAlign=middle;resizable=0;points=[];autosize=1;strokeColor=none;fillColor=none;fontSize=20;strokeWidth=1;" parent="1" vertex="1">
          <mxGeometry x="-134" y="147" width="195" height="36" as="geometry" />
        </mxCell>
        <mxCell id="NTjU7Ghl62rX6COnPViz-11" value="" style="group" parent="1" vertex="1" connectable="0">
          <mxGeometry x="895" y="415" width="319" height="237" as="geometry" />
        </mxCell>
        <mxCell id="NTjU7Ghl62rX6COnPViz-12" value="" style="rounded=1;whiteSpace=wrap;html=1;strokeColor=#3399FF;strokeWidth=2;" parent="NTjU7Ghl62rX6COnPViz-11" vertex="1">
          <mxGeometry x="18" y="30" width="194" height="106" as="geometry" />
        </mxCell>
        <mxCell id="NTjU7Ghl62rX6COnPViz-13" value="" style="aspect=fixed;sketch=0;html=1;dashed=0;whitespace=wrap;fillColor=#2875E2;strokeColor=#ffffff;points=[[0.005,0.63,0],[0.1,0.2,0],[0.9,0.2,0],[0.5,0,0],[0.995,0.63,0],[0.72,0.99,0],[0.5,1,0],[0.28,0.99,0]];shape=mxgraph.kubernetes.icon2;kubernetesLabel=1;prIcon=pod" parent="NTjU7Ghl62rX6COnPViz-11" vertex="1">
          <mxGeometry y="7" width="50" height="48" as="geometry" />
        </mxCell>
        <mxCell id="NTjU7Ghl62rX6COnPViz-14" value="&lt;b&gt;technews-services&lt;/b&gt;" style="text;html=1;align=center;verticalAlign=middle;whiteSpace=wrap;rounded=0;" parent="NTjU7Ghl62rX6COnPViz-11" vertex="1">
          <mxGeometry x="40" width="123" height="30" as="geometry" />
        </mxCell>
        <mxCell id="NTjU7Ghl62rX6COnPViz-15" value="rabbit-mq" style="image;aspect=fixed;html=1;points=[];align=center;fontSize=12;image=img/lib/azure2/compute/Container_Instances.svg;" parent="NTjU7Ghl62rX6COnPViz-11" vertex="1">
          <mxGeometry x="58" y="48" width="41.41" height="44" as="geometry" />
        </mxCell>
        <mxCell id="NTjU7Ghl62rX6COnPViz-16" value="event-store" style="image;aspect=fixed;html=1;points=[];align=center;fontSize=12;image=img/lib/azure2/compute/Container_Instances.svg;" parent="NTjU7Ghl62rX6COnPViz-11" vertex="1">
          <mxGeometry x="128.8" y="48" width="41.41" height="44" as="geometry" />
        </mxCell>
        <mxCell id="TloU8iy0yP0ph9ZW-5ku-18" value="" style="group" parent="1" vertex="1" connectable="0">
          <mxGeometry x="416" y="387" width="132" height="83" as="geometry" />
        </mxCell>
        <mxCell id="TloU8iy0yP0ph9ZW-5ku-19" value="" style="aspect=fixed;sketch=0;html=1;dashed=0;whitespace=wrap;fillColor=#2875E2;strokeColor=#ffffff;points=[[0.005,0.63,0],[0.1,0.2,0],[0.9,0.2,0],[0.5,0,0],[0.995,0.63,0],[0.72,0.99,0],[0.5,1,0],[0.28,0.99,0]];shape=mxgraph.kubernetes.icon2;prIcon=svc" parent="TloU8iy0yP0ph9ZW-5ku-18" vertex="1">
          <mxGeometry x="34.57142857142857" width="53.205128205128204" height="51.07692307692308" as="geometry" />
        </mxCell>
        <mxCell id="TloU8iy0yP0ph9ZW-5ku-20" value="&lt;b&gt;cluster-ip-database&lt;/b&gt;" style="text;html=1;align=center;verticalAlign=middle;whiteSpace=wrap;rounded=0;" parent="TloU8iy0yP0ph9ZW-5ku-18" vertex="1">
          <mxGeometry y="51.07692307692308" width="132" height="31.923076923076923" as="geometry" />
        </mxCell>
        <mxCell id="TloU8iy0yP0ph9ZW-5ku-21" value="" style="group" parent="1" vertex="1" connectable="0">
          <mxGeometry x="533" y="339" width="238" height="147" as="geometry" />
        </mxCell>
        <mxCell id="TloU8iy0yP0ph9ZW-5ku-9" value="" style="group" parent="TloU8iy0yP0ph9ZW-5ku-21" vertex="1" connectable="0">
          <mxGeometry y="3.8940397350993377" width="238" height="143.10596026490066" as="geometry" />
        </mxCell>
        <mxCell id="TloU8iy0yP0ph9ZW-5ku-10" value="" style="rounded=1;whiteSpace=wrap;html=1;fillColor=none;strokeColor=#3399FF;strokeWidth=2;" parent="TloU8iy0yP0ph9ZW-5ku-9" vertex="1">
          <mxGeometry x="18.41" y="21.84" width="159.59" height="107.16" as="geometry" />
        </mxCell>
        <mxCell id="TloU8iy0yP0ph9ZW-5ku-16" value="" style="rounded=0;whiteSpace=wrap;html=1;dashed=1;strokeColor=#6600CC;" parent="TloU8iy0yP0ph9ZW-5ku-9" vertex="1">
          <mxGeometry x="44.9075" y="36.16264900662251" width="119" height="83.08907284768212" as="geometry" />
        </mxCell>
        <mxCell id="TloU8iy0yP0ph9ZW-5ku-11" value="" style="aspect=fixed;sketch=0;html=1;dashed=0;whitespace=wrap;fillColor=#2875E2;strokeColor=#ffffff;points=[[0.005,0.63,0],[0.1,0.2,0],[0.9,0.2,0],[0.5,0,0],[0.995,0.63,0],[0.72,0.99,0],[0.5,1,0],[0.28,0.99,0]];shape=mxgraph.kubernetes.icon2;kubernetesLabel=1;prIcon=pod" parent="TloU8iy0yP0ph9ZW-5ku-9" vertex="1">
          <mxGeometry width="39.1673900462963" height="37.60069444444444" as="geometry" />
        </mxCell>
        <mxCell id="TloU8iy0yP0ph9ZW-5ku-12" value="" style="image;aspect=fixed;html=1;points=[];align=center;fontSize=12;image=img/lib/azure2/compute/Container_Instances.svg;" parent="TloU8iy0yP0ph9ZW-5ku-9" vertex="1">
          <mxGeometry x="32.51016414141408" y="23.84774834437086" width="32.43843243634259" height="34.46730324074074" as="geometry" />
        </mxCell>
        <mxCell id="TloU8iy0yP0ph9ZW-5ku-14" value="" style="image;sketch=0;aspect=fixed;html=1;points=[];align=center;fontSize=12;image=img/lib/mscae/SQL_Database_generic.svg;" parent="TloU8iy0yP0ph9ZW-5ku-9" vertex="1">
          <mxGeometry x="64.94743055555556" y="51.82463576158938" width="31.402777777777775" height="41.31944444444444" as="geometry" />
        </mxCell>
        <mxCell id="TloU8iy0yP0ph9ZW-5ku-15" value="" style="image;sketch=0;aspect=fixed;html=1;points=[];align=center;fontSize=12;image=img/lib/mscae/SQL_Database_generic.svg;" parent="TloU8iy0yP0ph9ZW-5ku-9" vertex="1">
          <mxGeometry x="113.49777777777777" y="51.8246357615894" width="31.402777777777775" height="41.31944444444444" as="geometry" />
        </mxCell>
        <mxCell id="eSd753k8VuvV7ai8gOuy-1" value="AuthDB" style="text;html=1;align=center;verticalAlign=middle;whiteSpace=wrap;rounded=0;" vertex="1" parent="TloU8iy0yP0ph9ZW-5ku-9">
          <mxGeometry x="50.64999999999998" y="85.11596026490066" width="60" height="30" as="geometry" />
        </mxCell>
        <mxCell id="eSd753k8VuvV7ai8gOuy-2" value="CoreDB" style="text;html=1;align=center;verticalAlign=middle;resizable=0;points=[];autosize=1;strokeColor=none;fillColor=none;" vertex="1" parent="TloU8iy0yP0ph9ZW-5ku-9">
          <mxGeometry x="102.91000000000008" y="87.11596026490066" width="61" height="26" as="geometry" />
        </mxCell>
        <mxCell id="TloU8iy0yP0ph9ZW-5ku-17" value="&lt;b&gt;technews-database&lt;/b&gt;" style="text;html=1;align=center;verticalAlign=middle;resizable=0;points=[];autosize=1;strokeColor=none;fillColor=none;" parent="TloU8iy0yP0ph9ZW-5ku-21" vertex="1">
          <mxGeometry x="34.70833333333333" width="129" height="26" as="geometry" />
        </mxCell>
        <mxCell id="TloU8iy0yP0ph9ZW-5ku-28" value="" style="group" parent="1" vertex="1" connectable="0">
          <mxGeometry x="160" y="236" width="182" height="122" as="geometry" />
        </mxCell>
        <mxCell id="TloU8iy0yP0ph9ZW-5ku-1" value="" style="group" parent="TloU8iy0yP0ph9ZW-5ku-28" vertex="1" connectable="0">
          <mxGeometry y="2" width="182" height="120" as="geometry" />
        </mxCell>
        <mxCell id="NTjU7Ghl62rX6COnPViz-7" value="" style="rounded=1;whiteSpace=wrap;html=1;strokeColor=#3399FF;strokeWidth=2;" parent="TloU8iy0yP0ph9ZW-5ku-1" vertex="1">
          <mxGeometry x="22.909090909090907" y="23" width="159.09090909090907" height="97" as="geometry" />
        </mxCell>
        <mxCell id="NTjU7Ghl62rX6COnPViz-5" value="" style="aspect=fixed;sketch=0;html=1;dashed=0;whitespace=wrap;fillColor=#2875E2;strokeColor=#ffffff;points=[[0.005,0.63,0],[0.1,0.2,0],[0.9,0.2,0],[0.5,0,0],[0.995,0.63,0],[0.72,0.99,0],[0.5,1,0],[0.28,0.99,0]];shape=mxgraph.kubernetes.icon2;kubernetesLabel=1;prIcon=pod" parent="TloU8iy0yP0ph9ZW-5ku-1" vertex="1">
          <mxGeometry width="50" height="48" as="geometry" />
        </mxCell>
        <mxCell id="NTjU7Ghl62rX6COnPViz-9" value="technews-auth-api" style="image;aspect=fixed;html=1;points=[];align=center;fontSize=12;image=img/lib/azure2/compute/Container_Instances.svg;" parent="TloU8iy0yP0ph9ZW-5ku-1" vertex="1">
          <mxGeometry x="81.74818181818182" y="38" width="41.41" height="44" as="geometry" />
        </mxCell>
        <mxCell id="TloU8iy0yP0ph9ZW-5ku-6" value="&lt;b&gt;technews-auth-api&lt;/b&gt;" style="text;html=1;align=center;verticalAlign=middle;resizable=0;points=[];autosize=1;strokeColor=none;fillColor=none;" parent="TloU8iy0yP0ph9ZW-5ku-28" vertex="1">
          <mxGeometry x="41" width="123" height="26" as="geometry" />
        </mxCell>
        <mxCell id="TloU8iy0yP0ph9ZW-5ku-29" value="" style="group" parent="1" vertex="1" connectable="0">
          <mxGeometry x="165" y="454" width="178" height="121" as="geometry" />
        </mxCell>
        <mxCell id="TloU8iy0yP0ph9ZW-5ku-2" value="" style="group" parent="TloU8iy0yP0ph9ZW-5ku-29" vertex="1" connectable="0">
          <mxGeometry y="4" width="177" height="117" as="geometry" />
        </mxCell>
        <mxCell id="TloU8iy0yP0ph9ZW-5ku-3" value="" style="rounded=1;whiteSpace=wrap;html=1;strokeColor=#3399FF;strokeWidth=2;" parent="TloU8iy0yP0ph9ZW-5ku-2" vertex="1">
          <mxGeometry x="22.279720279720276" y="22.425" width="154.7202797202797" height="94.57499999999999" as="geometry" />
        </mxCell>
        <mxCell id="TloU8iy0yP0ph9ZW-5ku-4" value="" style="aspect=fixed;sketch=0;html=1;dashed=0;whitespace=wrap;fillColor=#2875E2;strokeColor=#ffffff;points=[[0.005,0.63,0],[0.1,0.2,0],[0.9,0.2,0],[0.5,0,0],[0.995,0.63,0],[0.72,0.99,0],[0.5,1,0],[0.28,0.99,0]];shape=mxgraph.kubernetes.icon2;kubernetesLabel=1;prIcon=pod" parent="TloU8iy0yP0ph9ZW-5ku-2" vertex="1">
          <mxGeometry width="47.395833333333336" height="45.5" as="geometry" />
        </mxCell>
        <mxCell id="NTjU7Ghl62rX6COnPViz-10" value="technews-core-api" style="image;aspect=fixed;html=1;points=[];align=center;fontSize=12;image=img/lib/azure2/compute/Container_Instances.svg;" parent="TloU8iy0yP0ph9ZW-5ku-2" vertex="1">
          <mxGeometry x="81.99818181818175" y="42" width="39.253229166666664" height="41.708333333333336" as="geometry" />
        </mxCell>
        <mxCell id="TloU8iy0yP0ph9ZW-5ku-7" value="&lt;b style=&quot;color: rgb(0, 0, 0); font-family: Helvetica; font-size: 12px; font-style: normal; font-variant-ligatures: normal; font-variant-caps: normal; letter-spacing: normal; orphans: 2; text-align: center; text-indent: 0px; text-transform: none; widows: 2; word-spacing: 0px; -webkit-text-stroke-width: 0px; white-space: nowrap; background-color: rgb(255, 255, 255); text-decoration-thickness: initial; text-decoration-style: initial; text-decoration-color: initial;&quot;&gt;technews-core-api&lt;/b&gt;" style="text;whiteSpace=wrap;html=1;" parent="TloU8iy0yP0ph9ZW-5ku-29" vertex="1">
          <mxGeometry x="45" width="133" height="36" as="geometry" />
        </mxCell>
        <mxCell id="TloU8iy0yP0ph9ZW-5ku-32" value="" style="group" parent="1" vertex="1" connectable="0">
          <mxGeometry x="370" y="652" width="224" height="121" as="geometry" />
        </mxCell>
        <mxCell id="TloU8iy0yP0ph9ZW-5ku-33" value="" style="group" parent="TloU8iy0yP0ph9ZW-5ku-32" vertex="1" connectable="0">
          <mxGeometry y="4" width="224" height="117" as="geometry" />
        </mxCell>
        <mxCell id="TloU8iy0yP0ph9ZW-5ku-34" value="" style="rounded=1;whiteSpace=wrap;html=1;strokeColor=#3399FF;strokeWidth=2;" parent="TloU8iy0yP0ph9ZW-5ku-33" vertex="1">
          <mxGeometry x="22.28" y="22.43" width="201.72" height="94.57" as="geometry" />
        </mxCell>
        <mxCell id="TloU8iy0yP0ph9ZW-5ku-35" value="" style="aspect=fixed;sketch=0;html=1;dashed=0;whitespace=wrap;fillColor=#2875E2;strokeColor=#ffffff;points=[[0.005,0.63,0],[0.1,0.2,0],[0.9,0.2,0],[0.5,0,0],[0.995,0.63,0],[0.72,0.99,0],[0.5,1,0],[0.28,0.99,0]];shape=mxgraph.kubernetes.icon2;kubernetesLabel=1;prIcon=pod" parent="TloU8iy0yP0ph9ZW-5ku-33" vertex="1">
          <mxGeometry width="47.395833333333336" height="45.5" as="geometry" />
        </mxCell>
        <mxCell id="TloU8iy0yP0ph9ZW-5ku-36" value="technews-notification-service" style="image;aspect=fixed;html=1;points=[];align=center;fontSize=12;image=img/lib/azure2/compute/Container_Instances.svg;" parent="TloU8iy0yP0ph9ZW-5ku-33" vertex="1">
          <mxGeometry x="100.99818181818175" y="41" width="39.253229166666664" height="41.708333333333336" as="geometry" />
        </mxCell>
        <mxCell id="TloU8iy0yP0ph9ZW-5ku-37" value="&lt;b style=&quot;color: rgb(0, 0, 0); font-family: Helvetica; font-size: 12px; font-style: normal; font-variant-ligatures: normal; font-variant-caps: normal; letter-spacing: normal; orphans: 2; text-align: center; text-indent: 0px; text-transform: none; widows: 2; word-spacing: 0px; -webkit-text-stroke-width: 0px; white-space: nowrap; background-color: rgb(255, 255, 255); text-decoration-thickness: initial; text-decoration-style: initial; text-decoration-color: initial;&quot;&gt;technews-notification-service&lt;/b&gt;" style="text;whiteSpace=wrap;html=1;" parent="TloU8iy0yP0ph9ZW-5ku-32" vertex="1">
          <mxGeometry x="45" width="133" height="36" as="geometry" />
        </mxCell>
        <mxCell id="TloU8iy0yP0ph9ZW-5ku-42" value="" style="rounded=0;whiteSpace=wrap;html=1;fillColor=#000000;strokeColor=#CCCCCC;fontColor=#333333;direction=south;" parent="1" vertex="1">
          <mxGeometry x="741" y="217" width="9" height="511" as="geometry" />
        </mxCell>
        <mxCell id="TloU8iy0yP0ph9ZW-5ku-43" value="" style="endArrow=classic;html=1;rounded=0;strokeWidth=3;entryX=0.117;entryY=1.111;entryDx=0;entryDy=0;entryPerimeter=0;exitX=1.01;exitY=0.156;exitDx=0;exitDy=0;exitPerimeter=0;" parent="1" source="NTjU7Ghl62rX6COnPViz-7" target="TloU8iy0yP0ph9ZW-5ku-42" edge="1">
          <mxGeometry width="50" height="50" relative="1" as="geometry">
            <mxPoint x="347" y="275" as="sourcePoint" />
            <mxPoint x="674.002" y="275.8299999999999" as="targetPoint" />
          </mxGeometry>
        </mxCell>
        <mxCell id="TloU8iy0yP0ph9ZW-5ku-44" value="" style="endArrow=classic;html=1;rounded=0;entryX=0.677;entryY=1;entryDx=0;entryDy=0;entryPerimeter=0;exitX=1.013;exitY=0.863;exitDx=0;exitDy=0;strokeWidth=3;exitPerimeter=0;" parent="1" source="TloU8iy0yP0ph9ZW-5ku-3" target="TloU8iy0yP0ph9ZW-5ku-42" edge="1">
          <mxGeometry width="50" height="50" relative="1" as="geometry">
            <mxPoint x="336" y="563.0024999999998" as="sourcePoint" />
            <mxPoint x="677" y="563.1179999999999" as="targetPoint" />
            <Array as="points" />
          </mxGeometry>
        </mxCell>
        <mxCell id="TloU8iy0yP0ph9ZW-5ku-45" value="" style="endArrow=classic;html=1;rounded=0;entryX=0.005;entryY=0.63;entryDx=0;entryDy=0;entryPerimeter=0;exitX=0.55;exitY=-0.667;exitDx=0;exitDy=0;exitPerimeter=0;strokeWidth=3;" parent="1" source="TloU8iy0yP0ph9ZW-5ku-42" target="NTjU7Ghl62rX6COnPViz-17" edge="1">
          <mxGeometry width="50" height="50" relative="1" as="geometry">
            <mxPoint x="922" y="488" as="sourcePoint" />
            <mxPoint x="922" y="448" as="targetPoint" />
          </mxGeometry>
        </mxCell>
        <mxCell id="TloU8iy0yP0ph9ZW-5ku-46" value="" style="endArrow=classic;html=1;rounded=0;entryX=0.948;entryY=1;entryDx=0;entryDy=0;exitX=1;exitY=0.25;exitDx=0;exitDy=0;strokeWidth=3;entryPerimeter=0;" parent="1" source="TloU8iy0yP0ph9ZW-5ku-34" target="TloU8iy0yP0ph9ZW-5ku-42" edge="1">
          <mxGeometry width="50" height="50" relative="1" as="geometry">
            <mxPoint x="570" y="522" as="sourcePoint" />
            <mxPoint x="620" y="472" as="targetPoint" />
          </mxGeometry>
        </mxCell>
        <mxCell id="NTjU7Ghl62rX6COnPViz-19" value="" style="group" parent="1" vertex="1" connectable="0">
          <mxGeometry x="774" y="466" width="132" height="83" as="geometry" />
        </mxCell>
        <mxCell id="NTjU7Ghl62rX6COnPViz-17" value="" style="aspect=fixed;sketch=0;html=1;dashed=0;whitespace=wrap;fillColor=#2875E2;strokeColor=#ffffff;points=[[0.005,0.63,0],[0.1,0.2,0],[0.9,0.2,0],[0.5,0,0],[0.995,0.63,0],[0.72,0.99,0],[0.5,1,0],[0.28,0.99,0]];shape=mxgraph.kubernetes.icon2;prIcon=svc" parent="NTjU7Ghl62rX6COnPViz-19" vertex="1">
          <mxGeometry x="34.57142857142857" width="53.205128205128204" height="51.07692307692308" as="geometry" />
        </mxCell>
        <mxCell id="NTjU7Ghl62rX6COnPViz-18" value="&lt;b&gt;cluster-ip-services&lt;/b&gt;" style="text;html=1;align=center;verticalAlign=middle;whiteSpace=wrap;rounded=0;" parent="NTjU7Ghl62rX6COnPViz-19" vertex="1">
          <mxGeometry y="51.07692307692308" width="132" height="31.923076923076923" as="geometry" />
        </mxCell>
        <mxCell id="TloU8iy0yP0ph9ZW-5ku-47" value="" style="endArrow=classic;html=1;rounded=0;entryX=0;entryY=0.5;entryDx=0;entryDy=0;exitX=0.995;exitY=0.63;exitDx=0;exitDy=0;exitPerimeter=0;" parent="1" source="NTjU7Ghl62rX6COnPViz-17" target="NTjU7Ghl62rX6COnPViz-12" edge="1">
          <mxGeometry width="50" height="50" relative="1" as="geometry">
            <mxPoint x="762" y="361" as="sourcePoint" />
            <mxPoint x="784" y="498" as="targetPoint" />
          </mxGeometry>
        </mxCell>
        <mxCell id="TloU8iy0yP0ph9ZW-5ku-48" value="" style="endArrow=classic;html=1;rounded=0;exitX=1;exitY=0.75;exitDx=0;exitDy=0;entryX=0.126;entryY=1;entryDx=0;entryDy=0;entryPerimeter=0;strokeWidth=3;fillColor=#f8cecc;strokeColor=#b85450;" parent="1" source="NTjU7Ghl62rX6COnPViz-7" target="TloU8iy0yP0ph9ZW-5ku-49" edge="1">
          <mxGeometry width="50" height="50" relative="1" as="geometry">
            <mxPoint x="547" y="464" as="sourcePoint" />
            <mxPoint x="13" y="373" as="targetPoint" />
          </mxGeometry>
        </mxCell>
        <mxCell id="TloU8iy0yP0ph9ZW-5ku-49" value="" style="rounded=0;whiteSpace=wrap;html=1;fillColor=#f8cecc;strokeColor=#b85450;direction=south;" parent="1" vertex="1">
          <mxGeometry x="396" y="304" width="9" height="238" as="geometry" />
        </mxCell>
        <mxCell id="TloU8iy0yP0ph9ZW-5ku-50" value="" style="endArrow=classic;html=1;rounded=0;exitX=1;exitY=0.75;exitDx=0;exitDy=0;strokeWidth=3;fillColor=#f8cecc;strokeColor=#b85450;entryX=0.871;entryY=1.111;entryDx=0;entryDy=0;entryPerimeter=0;" parent="1" target="TloU8iy0yP0ph9ZW-5ku-49" edge="1">
          <mxGeometry width="50" height="50" relative="1" as="geometry">
            <mxPoint x="342" y="511" as="sourcePoint" />
            <mxPoint x="394" y="512" as="targetPoint" />
          </mxGeometry>
        </mxCell>
        <mxCell id="TloU8iy0yP0ph9ZW-5ku-51" value="" style="endArrow=classic;html=1;rounded=0;exitX=0.477;exitY=0;exitDx=0;exitDy=0;strokeWidth=3;fillColor=#f8cecc;strokeColor=#b85450;exitPerimeter=0;" parent="1" source="TloU8iy0yP0ph9ZW-5ku-49" edge="1">
          <mxGeometry width="50" height="50" relative="1" as="geometry">
            <mxPoint x="463" y="413" as="sourcePoint" />
            <mxPoint x="455" y="418" as="targetPoint" />
          </mxGeometry>
        </mxCell>
        <mxCell id="TloU8iy0yP0ph9ZW-5ku-52" value="" style="endArrow=classic;html=1;rounded=0;exitX=0.995;exitY=0.63;exitDx=0;exitDy=0;strokeWidth=1;fillColor=#f8cecc;strokeColor=#b85450;exitPerimeter=0;entryX=0;entryY=0.5;entryDx=0;entryDy=0;" parent="1" source="TloU8iy0yP0ph9ZW-5ku-19" target="TloU8iy0yP0ph9ZW-5ku-10" edge="1">
          <mxGeometry width="50" height="50" relative="1" as="geometry">
            <mxPoint x="415" y="428" as="sourcePoint" />
            <mxPoint x="465" y="428" as="targetPoint" />
          </mxGeometry>
        </mxCell>
        <mxCell id="TloU8iy0yP0ph9ZW-5ku-53" value="" style="html=1;verticalLabelPosition=bottom;align=center;labelBackgroundColor=#ffffff;verticalAlign=top;strokeWidth=2;strokeColor=#0080F0;shadow=0;dashed=0;shape=mxgraph.ios7.icons.mail;" parent="1" vertex="1">
          <mxGeometry x="994" y="390" width="30" height="16.5" as="geometry" />
        </mxCell>
        <mxCell id="TloU8iy0yP0ph9ZW-5ku-56" value="" style="html=1;verticalLabelPosition=bottom;align=center;labelBackgroundColor=#ffffff;verticalAlign=top;strokeWidth=2;strokeColor=#0080F0;shadow=0;dashed=0;shape=mxgraph.ios7.icons.settings;" parent="1" vertex="1">
          <mxGeometry x="473" y="622" width="30" height="30" as="geometry" />
        </mxCell>
        <mxCell id="TloU8iy0yP0ph9ZW-5ku-57" value="" style="group" parent="1" vertex="1" connectable="0">
          <mxGeometry x="-214" y="342" width="178" height="121" as="geometry" />
        </mxCell>
        <mxCell id="TloU8iy0yP0ph9ZW-5ku-58" value="" style="group" parent="TloU8iy0yP0ph9ZW-5ku-57" vertex="1" connectable="0">
          <mxGeometry y="4" width="177" height="117" as="geometry" />
        </mxCell>
        <mxCell id="TloU8iy0yP0ph9ZW-5ku-59" value="" style="rounded=1;whiteSpace=wrap;html=1;strokeColor=#3399FF;strokeWidth=2;" parent="TloU8iy0yP0ph9ZW-5ku-58" vertex="1">
          <mxGeometry x="22.279720279720276" y="22.425" width="154.7202797202797" height="94.57499999999999" as="geometry" />
        </mxCell>
        <mxCell id="TloU8iy0yP0ph9ZW-5ku-60" value="" style="aspect=fixed;sketch=0;html=1;dashed=0;whitespace=wrap;fillColor=#2875E2;strokeColor=#ffffff;points=[[0.005,0.63,0],[0.1,0.2,0],[0.9,0.2,0],[0.5,0,0],[0.995,0.63,0],[0.72,0.99,0],[0.5,1,0],[0.28,0.99,0]];shape=mxgraph.kubernetes.icon2;kubernetesLabel=1;prIcon=pod" parent="TloU8iy0yP0ph9ZW-5ku-58" vertex="1">
          <mxGeometry width="47.395833333333336" height="45.5" as="geometry" />
        </mxCell>
        <mxCell id="TloU8iy0yP0ph9ZW-5ku-61" value="technews-web" style="image;aspect=fixed;html=1;points=[];align=center;fontSize=12;image=img/lib/azure2/compute/Container_Instances.svg;" parent="TloU8iy0yP0ph9ZW-5ku-58" vertex="1">
          <mxGeometry x="81.99818181818175" y="42" width="39.253229166666664" height="41.708333333333336" as="geometry" />
        </mxCell>
        <mxCell id="TloU8iy0yP0ph9ZW-5ku-62" value="&lt;b style=&quot;color: rgb(0, 0, 0); font-family: Helvetica; font-size: 12px; font-style: normal; font-variant-ligatures: normal; font-variant-caps: normal; letter-spacing: normal; orphans: 2; text-align: center; text-indent: 0px; text-transform: none; widows: 2; word-spacing: 0px; -webkit-text-stroke-width: 0px; white-space: nowrap; background-color: rgb(255, 255, 255); text-decoration-thickness: initial; text-decoration-style: initial; text-decoration-color: initial;&quot;&gt;technews-web&lt;/b&gt;" style="text;whiteSpace=wrap;html=1;" parent="TloU8iy0yP0ph9ZW-5ku-57" vertex="1">
          <mxGeometry x="45" width="133" height="36" as="geometry" />
        </mxCell>
        <mxCell id="TloU8iy0yP0ph9ZW-5ku-63" value="" style="group" parent="1" vertex="1" connectable="0">
          <mxGeometry x="-7" y="383" width="132" height="207.5" as="geometry" />
        </mxCell>
        <mxCell id="TloU8iy0yP0ph9ZW-5ku-64" value="" style="aspect=fixed;sketch=0;html=1;dashed=0;whitespace=wrap;fillColor=#2875E2;strokeColor=#ffffff;points=[[0.005,0.63,0],[0.1,0.2,0],[0.9,0.2,0],[0.5,0,0],[0.995,0.63,0],[0.72,0.99,0],[0.5,1,0],[0.28,0.99,0]];shape=mxgraph.kubernetes.icon2;prIcon=svc" parent="TloU8iy0yP0ph9ZW-5ku-63" vertex="1">
          <mxGeometry x="18.00142857142857" width="53.205128205128204" height="51.07692307692308" as="geometry" />
        </mxCell>
        <mxCell id="TloU8iy0yP0ph9ZW-5ku-66" value="" style="rounded=0;whiteSpace=wrap;html=1;fillColor=#d5e8d4;strokeColor=#82b366;direction=south;" parent="TloU8iy0yP0ph9ZW-5ku-63" vertex="1">
          <mxGeometry x="123" y="-124.5" width="9" height="332" as="geometry" />
        </mxCell>
        <mxCell id="TloU8iy0yP0ph9ZW-5ku-69" value="" style="endArrow=classic;html=1;rounded=0;exitX=1;exitY=0.75;exitDx=0;exitDy=0;strokeWidth=3;fillColor=#d5e8d4;strokeColor=#82b366;entryX=0.871;entryY=1.111;entryDx=0;entryDy=0;entryPerimeter=0;" parent="TloU8iy0yP0ph9ZW-5ku-63" edge="1">
          <mxGeometry width="50" height="50" relative="1" as="geometry">
            <mxPoint x="70" y="32" as="sourcePoint" />
            <mxPoint x="123" y="32" as="targetPoint" />
          </mxGeometry>
        </mxCell>
        <mxCell id="TloU8iy0yP0ph9ZW-5ku-67" value="" style="endArrow=classic;html=1;rounded=0;exitX=1;exitY=0.75;exitDx=0;exitDy=0;strokeWidth=3;fillColor=#d5e8d4;strokeColor=#82b366;entryX=0.871;entryY=1.111;entryDx=0;entryDy=0;entryPerimeter=0;" parent="1" edge="1">
          <mxGeometry width="50" height="50" relative="1" as="geometry">
            <mxPoint x="128" y="310" as="sourcePoint" />
            <mxPoint x="181" y="310" as="targetPoint" />
          </mxGeometry>
        </mxCell>
        <mxCell id="TloU8iy0yP0ph9ZW-5ku-68" value="" style="endArrow=classic;html=1;rounded=0;exitX=1;exitY=0.75;exitDx=0;exitDy=0;strokeWidth=3;fillColor=#d5e8d4;strokeColor=#82b366;entryX=0.871;entryY=1.111;entryDx=0;entryDy=0;entryPerimeter=0;" parent="1" edge="1">
          <mxGeometry width="50" height="50" relative="1" as="geometry">
            <mxPoint x="128" y="533" as="sourcePoint" />
            <mxPoint x="181" y="533" as="targetPoint" />
          </mxGeometry>
        </mxCell>
        <mxCell id="TloU8iy0yP0ph9ZW-5ku-65" value="&lt;b&gt;cluster-ip-apis&lt;/b&gt;" style="text;html=1;align=center;verticalAlign=middle;whiteSpace=wrap;rounded=0;" parent="1" vertex="1">
          <mxGeometry x="-28.4" y="434.0769230769231" width="132" height="31.923076923076923" as="geometry" />
        </mxCell>
        <mxCell id="TloU8iy0yP0ph9ZW-5ku-70" value="" style="endArrow=classic;html=1;rounded=0;strokeWidth=3;fillColor=#d5e8d4;strokeColor=#82b366;entryX=0.005;entryY=0.63;entryDx=0;entryDy=0;entryPerimeter=0;exitX=1;exitY=0.5;exitDx=0;exitDy=0;" parent="1" source="TloU8iy0yP0ph9ZW-5ku-59" target="TloU8iy0yP0ph9ZW-5ku-64" edge="1">
          <mxGeometry width="50" height="50" relative="1" as="geometry">
            <mxPoint x="-49" y="419" as="sourcePoint" />
            <mxPoint x="12" y="419" as="targetPoint" />
          </mxGeometry>
        </mxCell>
      </root>
    </mxGraphModel>
  </diagram>
</mxfile>
